<?xml version="1.0" standalone="no"?>
<!DOCTYPE svg PUBLIC "-//W3C//DTD SVG 20010904//EN"
 "http://www.w3.org/TR/2001/REC-SVG-20010904/DTD/svg10.dtd">
<svg version="1.0" xmlns="http://www.w3.org/2000/svg"
 width="100.000000pt" height="100.000000pt" viewBox="0 0 100.000000 100.000000"
 preserveAspectRatio="xMidYMid meet">
<metadata>
Created by potrace 1.14, written by Peter Selinger 2001-2017
</metadata>
<g transform="translate(0.000000,100.000000) scale(0.100000,-0.100000)"
fill="#000000" stroke="none">
<path d="M406 979 c3 -5 -13 -9 -36 -9 -25 0 -39 -4 -35 -10 4 -6 -7 -10 -25
-10 -18 0 -29 -4 -25 -10 5 -9 -16 -15 -38 -11 -5 1 -6 -3 -2 -9 3 -5 -1 -10
-9 -10 -9 0 -16 -5 -16 -11 0 -5 -4 -8 -9 -5 -5 3 -11 -1 -15 -9 -3 -8 -12
-15 -21 -15 -8 0 -15 -4 -15 -10 0 -5 -13 -22 -30 -37 -16 -14 -30 -32 -30
-40 0 -7 -4 -13 -10 -13 -5 0 -10 -7 -10 -16 0 -9 -5 -12 -12 -8 -6 4 -8 3 -5
-3 4 -6 0 -19 -8 -29 -8 -10 -15 -29 -15 -41 0 -13 -4 -23 -10 -23 -5 0 -10
-13 -10 -30 0 -17 -5 -30 -12 -30 -9 0 -9 -3 0 -12 7 -7 12 -17 12 -22 0 -6
-5 -4 -10 4 -8 11 -10 -11 -8 -72 2 -47 6 -84 9 -82 3 2 7 -13 8 -34 1 -20 3
-42 3 -49 1 -7 5 -10 10 -7 7 5 13 -18 9 -39 -1 -5 3 -6 9 -2 5 3 10 -2 10
-13 0 -10 8 -27 18 -38 9 -10 23 -31 31 -47 8 -15 17 -23 21 -18 3 6 11 -3 19
-20 7 -16 19 -29 27 -29 9 0 12 -5 8 -12 -4 -6 -3 -8 4 -4 6 3 17 -1 25 -9 9
-8 21 -15 27 -15 6 0 8 -5 5 -10 -4 -6 -3 -10 2 -9 23 4 43 -2 38 -11 -4 -6
-3 -10 2 -9 20 3 44 -2 40 -8 -7 -11 48 -16 178 -16 125 -1 176 4 169 15 -3 4
6 8 20 8 14 0 26 5 26 10 0 6 9 10 20 10 11 0 20 5 20 10 0 6 6 10 14 10 13 0
127 103 126 115 -2 24 1 29 10 15 8 -12 10 -11 10 8 0 12 5 22 10 22 6 0 10 9
10 19 0 11 5 21 11 23 6 2 12 15 12 30 1 14 4 25 7 23 3 -2 10 12 16 30 8 25
8 32 0 28 -7 -4 -7 -2 1 8 16 20 16 212 0 202 -7 -4 -5 2 3 12 9 11 10 16 2
11 -11 -6 -18 18 -13 47 0 4 -3 7 -9 7 -5 0 -10 9 -10 20 0 11 -4 20 -10 20
-5 0 -10 9 -10 20 0 11 -4 20 -10 20 -5 0 -10 6 -10 14 0 19 -127 146 -146
146 -7 0 -14 5 -14 10 0 6 -5 10 -10 10 -6 0 -30 9 -52 20 -23 11 -52 20 -65
20 -15 0 -22 4 -17 11 4 7 -1 7 -16 -1 -16 -9 -20 -9 -15 0 5 8 -19 11 -89 9
-53 -1 -93 -5 -90 -10z"/>
</g>
</svg>
